# xmcd
#
# Track frame offsets:
#	150
#	21210
#	43907
#	68981
#	86461
#	101956
#	120855
#	147194
#	165341
#	184785
#	206647
#	226539
#
# Disc length: 3312 seconds
#
# Revision: 0
# Processed by: cddbd v1.4PL0 Copyright (c) Steve Scherf et al.
# Submitted via: EasyCDDAExtractor 4.6.0.1
#
DISCID=980cee0c
DTITLE=Shirley Bassey - Harmony
DYEAR=1900
DGENRE=
TTITLE0=the power of love
TTITLE1=i want to knwo what love is
TTITLE2=greatest love of all
TTITLE3=sorry seems to be the hardest word
TTITLE4=yesterday
TTITLE5=thats what friends are for
TTITLE6=still
TTITLE7=all i ask of you
TTITLE8=he was beautiflull
TTITLE9=how do you keep the music playing
TTITLE10=wind beneath my wings
TTITLE11=dio come ti amo
EXTD=
EXTT0=
EXTT1=
EXTT2=
EXTT3=
EXTT4=
EXTT5=
EXTT6=
EXTT7=
EXTT8=
EXTT9=
EXTT10=
EXTT11=
PLAYORDER=
